<?xml version="1.0" encoding="utf-8" standalone="no"?>
<!DOCTYPE svg PUBLIC "-//W3C//DTD SVG 1.1//EN"
  "http://www.w3.org/Graphics/SVG/1.1/DTD/svg11.dtd">
<svg xmlns:xlink="http://www.w3.org/1999/xlink" width="1467.033125pt" height="369.931938pt" viewBox="0 0 1467.033125 369.931938" xmlns="http://www.w3.org/2000/svg" version="1.1">
 <metadata>
  <rdf:RDF xmlns:dc="http://purl.org/dc/elements/1.1/" xmlns:cc="http://creativecommons.org/ns#" xmlns:rdf="http://www.w3.org/1999/02/22-rdf-syntax-ns#">
   <cc:Work>
    <dc:type rdf:resource="http://purl.org/dc/dcmitype/StillImage"/>
    <dc:date>2026-04-06T14:20:05.265116</dc:date>
    <dc:format>image/svg+xml</dc:format>
    <dc:creator>
     <cc:Agent>
      <dc:title>Matplotlib v3.10.0, https://matplotlib.org/</dc:title>
     </cc:Agent>
    </dc:creator>
   </cc:Work>
  </rdf:RDF>
 </metadata>
 <defs>
  <style type="text/css">*{stroke-linejoin: round; stroke-linecap: butt}</style>
 </defs>
 <g id="figure_1">
  <g id="patch_1">
   <path d="M 0 369.931938 
L 1467.033125 369.931938 
L 1467.033125 0 
L 0 0 
z
" style="fill: #ffffff"/>
  </g>
  <g id="axes_1">
   <g id="patch_2">
    <path d="M 40.603125 334.856 
L 306.089125 334.856 
L 306.089125 65.04 
L 40.603125 65.04 
z
" style="fill: #ffffff"/>
   </g>
   <g id="patch_3">
    <path d="M 62.726958 334.856 
L 84.850792 334.856 
L 84.850792 77.888381 
L 62.726958 77.888381 
z
" clip-path="url(#p499cb677d8)" style="fill: #f4a83a"/>
   </g>
   <g id="patch_4">
    <path d="M 151.222292 334.856 
L 173.346125 334.856 
L 173.346125 235.573056 
L 151.222292 235.573056 
z
" clip-path="url(#p499cb677d8)" style="fill: #f4a83a"/>
   </g>
   <g id="patch_5">
    <path d="M 239.717625 334.856 
L 261.841458 334.856 
L 261.841458 305.655134 
L 239.717625 305.655134 
z
" clip-path="url(#p499cb677d8)" style="fill: #f4a83a"/>
   </g>
   <g id="patch_6">
    <path d="M 84.850792 334.856 
L 106.974625 334.856 
L 106.974625 89.568727 
L 84.850792 89.568727 
z
" clip-path="url(#p499cb677d8)" style="fill: #4caf50"/>
   </g>
   <g id="patch_7">
    <path d="M 173.346125 334.856 
L 195.469958 334.856 
L 195.469958 188.851671 
L 173.346125 188.851671 
z
" clip-path="url(#p499cb677d8)" style="fill: #4caf50"/>
   </g>
   <g id="patch_8">
    <path d="M 261.841458 334.856 
L 283.965292 334.856 
L 283.965292 305.655134 
L 261.841458 305.655134 
z
" clip-path="url(#p499cb677d8)" style="fill: #4caf50"/>
   </g>
   <g id="matplotlib.axis_1">
    <g id="xtick_1">
     <g id="line2d_1">
      <defs>
       <path id="m5d67e810e7" d="M 0 0 
L 0 3.5 
" style="stroke: #000000; stroke-width: 0.8"/>
      </defs>
      <g>
       <use xlink:href="#m5d67e810e7" x="84.850792" y="334.856" style="stroke: #000000; stroke-width: 0.8"/>
      </g>
     </g>
     <g id="text_1">
      <!-- Low -->
      <g transform="translate(75.003917 349.454437) scale(0.1 -0.1)">
       <defs>
        <path id="DejaVuSans-4c" d="M 628 4666 
L 1259 4666 
L 1259 531 
L 3531 531 
L 3531 0 
L 628 0 
L 628 4666 
z
" transform="scale(0.015625)"/>
        <path id="DejaVuSans-6f" d="M 1959 3097 
Q 1497 3097 1228 2736 
Q 959 2375 959 1747 
Q 959 1119 1226 758 
Q 1494 397 1959 397 
Q 2419 397 2687 759 
Q 2956 1122 2956 1747 
Q 2956 2369 2687 2733 
Q 2419 3097 1959 3097 
z
M 1959 3584 
Q 2709 3584 3137 3096 
Q 3566 2609 3566 1747 
Q 3566 888 3137 398 
Q 2709 -91 1959 -91 
Q 1206 -91 779 398 
Q 353 888 353 1747 
Q 353 2609 779 3096 
Q 1206 3584 1959 3584 
z
" transform="scale(0.015625)"/>
        <path id="DejaVuSans-77" d="M 269 3500 
L 844 3500 
L 1563 769 
L 2278 3500 
L 2956 3500 
L 3675 769 
L 4391 3500 
L 4966 3500 
L 4050 0 
L 3372 0 
L 2619 2869 
L 1863 0 
L 1184 0 
L 269 3500 
z
" transform="scale(0.015625)"/>
       </defs>
       <use xlink:href="#DejaVuSans-4c"/>
       <use xlink:href="#DejaVuSans-6f" transform="translate(53.962891 0)"/>
       <use xlink:href="#DejaVuSans-77" transform="translate(115.144531 0)"/>
      </g>
      <!-- (&lt;4 Mha) -->
      <g transform="translate(61.442198 360.65225) scale(0.1 -0.1)">
       <defs>
        <path id="DejaVuSans-28" d="M 1984 4856 
Q 1566 4138 1362 3434 
Q 1159 2731 1159 2009 
Q 1159 1288 1364 580 
Q 1569 -128 1984 -844 
L 1484 -844 
Q 1016 -109 783 600 
Q 550 1309 550 2009 
Q 550 2706 781 3412 
Q 1013 4119 1484 4856 
L 1984 4856 
z
" transform="scale(0.015625)"/>
        <path id="DejaVuSans-3c" d="M 4684 3150 
L 1459 2003 
L 4684 863 
L 4684 294 
L 678 1747 
L 678 2266 
L 4684 3719 
L 4684 3150 
z
" transform="scale(0.015625)"/>
        <path id="DejaVuSans-34" d="M 2419 4116 
L 825 1625 
L 2419 1625 
L 2419 4116 
z
M 2253 4666 
L 3047 4666 
L 3047 1625 
L 3713 1625 
L 3713 1100 
L 3047 1100 
L 3047 0 
L 2419 0 
L 2419 1100 
L 313 1100 
L 313 1709 
L 2253 4666 
z
" transform="scale(0.015625)"/>
        <path id="DejaVuSans-20" transform="scale(0.015625)"/>
        <path id="DejaVuSans-4d" d="M 628 4666 
L 1569 4666 
L 2759 1491 
L 3956 4666 
L 4897 4666 
L 4897 0 
L 4281 0 
L 4281 4097 
L 3078 897 
L 2444 897 
L 1241 4097 
L 1241 0 
L 628 0 
L 628 4666 
z
" transform="scale(0.015625)"/>
        <path id="DejaVuSans-68" d="M 3513 2113 
L 3513 0 
L 2938 0 
L 2938 2094 
Q 2938 2591 2744 2837 
Q 2550 3084 2163 3084 
Q 1697 3084 1428 2787 
Q 1159 2491 1159 1978 
L 1159 0 
L 581 0 
L 581 4863 
L 1159 4863 
L 1159 2956 
Q 1366 3272 1645 3428 
Q 1925 3584 2291 3584 
Q 2894 3584 3203 3211 
Q 3513 2838 3513 2113 
z
" transform="scale(0.015625)"/>
        <path id="DejaVuSans-61" d="M 2194 1759 
Q 1497 1759 1228 1600 
Q 959 1441 959 1056 
Q 959 750 1161 570 
Q 1363 391 1709 391 
Q 2188 391 2477 730 
Q 2766 1069 2766 1631 
L 2766 1759 
L 2194 1759 
z
M 3341 1997 
L 3341 0 
L 2766 0 
L 2766 531 
Q 2569 213 2275 61 
Q 1981 -91 1556 -91 
Q 1019 -91 701 211 
Q 384 513 384 1019 
Q 384 1609 779 1909 
Q 1175 2209 1959 2209 
L 2766 2209 
L 2766 2266 
Q 2766 2663 2505 2880 
Q 2244 3097 1772 3097 
Q 1472 3097 1187 3025 
Q 903 2953 641 2809 
L 641 3341 
Q 956 3463 1253 3523 
Q 1550 3584 1831 3584 
Q 2591 3584 2966 3190 
Q 3341 2797 3341 1997 
z
" transform="scale(0.015625)"/>
        <path id="DejaVuSans-29" d="M 513 4856 
L 1013 4856 
Q 1481 4119 1714 3412 
Q 1947 2706 1947 2009 
Q 1947 1309 1714 600 
Q 1481 -109 1013 -844 
L 513 -844 
Q 928 -128 1133 580 
Q 1338 1288 1338 2009 
Q 1338 2731 1133 3434 
Q 928 4138 513 4856 
z
" transform="scale(0.015625)"/>
       </defs>
       <use xlink:href="#DejaVuSans-28"/>
       <use xlink:href="#DejaVuSans-3c" transform="translate(39.013672 0)"/>
       <use xlink:href="#DejaVuSans-34" transform="translate(122.802734 0)"/>
       <use xlink:href="#DejaVuSans-20" transform="translate(186.425781 0)"/>
       <use xlink:href="#DejaVuSans-4d" transform="translate(218.212891 0)"/>
       <use xlink:href="#DejaVuSans-68" transform="translate(304.492188 0)"/>
       <use xlink:href="#DejaVuSans-61" transform="translate(367.871094 0)"/>
       <use xlink:href="#DejaVuSans-29" transform="translate(429.150391 0)"/>
      </g>
     </g>
    </g>
    <g id="xtick_2">
     <g id="line2d_2">
      <g>
       <use xlink:href="#m5d67e810e7" x="173.346125" y="334.856" style="stroke: #000000; stroke-width: 0.8"/>
      </g>
     </g>
     <g id="text_2">
      <!-- Medium -->
      <g transform="translate(153.353156 349.454437) scale(0.1 -0.1)">
       <defs>
        <path id="DejaVuSans-65" d="M 3597 1894 
L 3597 1613 
L 953 1613 
Q 991 1019 1311 708 
Q 1631 397 2203 397 
Q 2534 397 2845 478 
Q 3156 559 3463 722 
L 3463 178 
Q 3153 47 2828 -22 
Q 2503 -91 2169 -91 
Q 1331 -91 842 396 
Q 353 884 353 1716 
Q 353 2575 817 3079 
Q 1281 3584 2069 3584 
Q 2775 3584 3186 3129 
Q 3597 2675 3597 1894 
z
M 3022 2063 
Q 3016 2534 2758 2815 
Q 2500 3097 2075 3097 
Q 1594 3097 1305 2825 
Q 1016 2553 972 2059 
L 3022 2063 
z
" transform="scale(0.015625)"/>
        <path id="DejaVuSans-64" d="M 2906 2969 
L 2906 4863 
L 3481 4863 
L 3481 0 
L 2906 0 
L 2906 525 
Q 2725 213 2448 61 
Q 2172 -91 1784 -91 
Q 1150 -91 751 415 
Q 353 922 353 1747 
Q 353 2572 751 3078 
Q 1150 3584 1784 3584 
Q 2172 3584 2448 3432 
Q 2725 3281 2906 2969 
z
M 947 1747 
Q 947 1113 1208 752 
Q 1469 391 1925 391 
Q 2381 391 2643 752 
Q 2906 1113 2906 1747 
Q 2906 2381 2643 2742 
Q 2381 3103 1925 3103 
Q 1469 3103 1208 2742 
Q 947 2381 947 1747 
z
" transform="scale(0.015625)"/>
        <path id="DejaVuSans-69" d="M 603 3500 
L 1178 3500 
L 1178 0 
L 603 0 
L 603 3500 
z
M 603 4863 
L 1178 4863 
L 1178 4134 
L 603 4134 
L 603 4863 
z
" transform="scale(0.015625)"/>
        <path id="DejaVuSans-75" d="M 544 1381 
L 544 3500 
L 1119 3500 
L 1119 1403 
Q 1119 906 1312 657 
Q 1506 409 1894 409 
Q 2359 409 2629 706 
Q 2900 1003 2900 1516 
L 2900 3500 
L 3475 3500 
L 3475 0 
L 2900 0 
L 2900 538 
Q 2691 219 2414 64 
Q 2138 -91 1772 -91 
Q 1169 -91 856 284 
Q 544 659 544 1381 
z
M 1991 3584 
L 1991 3584 
z
" transform="scale(0.015625)"/>
        <path id="DejaVuSans-6d" d="M 3328 2828 
Q 3544 3216 3844 3400 
Q 4144 3584 4550 3584 
Q 5097 3584 5394 3201 
Q 5691 2819 5691 2113 
L 5691 0 
L 5113 0 
L 5113 2094 
Q 5113 2597 4934 2840 
Q 4756 3084 4391 3084 
Q 3944 3084 3684 2787 
Q 3425 2491 3425 1978 
L 3425 0 
L 2847 0 
L 2847 2094 
Q 2847 2600 2669 2842 
Q 2491 3084 2119 3084 
Q 1678 3084 1418 2786 
Q 1159 2488 1159 1978 
L 1159 0 
L 581 0 
L 581 3500 
L 1159 3500 
L 1159 2956 
Q 1356 3278 1631 3431 
Q 1906 3584 2284 3584 
Q 2666 3584 2933 3390 
Q 3200 3197 3328 2828 
z
" transform="scale(0.015625)"/>
       </defs>
       <use xlink:href="#DejaVuSans-4d"/>
       <use xlink:href="#DejaVuSans-65" transform="translate(86.279297 0)"/>
       <use xlink:href="#DejaVuSans-64" transform="translate(147.802734 0)"/>
       <use xlink:href="#DejaVuSans-69" transform="translate(211.279297 0)"/>
       <use xlink:href="#DejaVuSans-75" transform="translate(239.0625 0)"/>
       <use xlink:href="#DejaVuSans-6d" transform="translate(302.441406 0)"/>
      </g>
      <!-- (4-37 Mha) -->
      <g transform="translate(145.960969 360.65225) scale(0.1 -0.1)">
       <defs>
        <path id="DejaVuSans-2d" d="M 313 2009 
L 1997 2009 
L 1997 1497 
L 313 1497 
L 313 2009 
z
" transform="scale(0.015625)"/>
        <path id="DejaVuSans-33" d="M 2597 2516 
Q 3050 2419 3304 2112 
Q 3559 1806 3559 1356 
Q 3559 666 3084 287 
Q 2609 -91 1734 -91 
Q 1441 -91 1130 -33 
Q 819 25 488 141 
L 488 750 
Q 750 597 1062 519 
Q 1375 441 1716 441 
Q 2309 441 2620 675 
Q 2931 909 2931 1356 
Q 2931 1769 2642 2001 
Q 2353 2234 1838 2234 
L 1294 2234 
L 1294 2753 
L 1863 2753 
Q 2328 2753 2575 2939 
Q 2822 3125 2822 3475 
Q 2822 3834 2567 4026 
Q 2313 4219 1838 4219 
Q 1578 4219 1281 4162 
Q 984 4106 628 3988 
L 628 4550 
Q 988 4650 1302 4700 
Q 1616 4750 1894 4750 
Q 2613 4750 3031 4423 
Q 3450 4097 3450 3541 
Q 3450 3153 3228 2886 
Q 3006 2619 2597 2516 
z
" transform="scale(0.015625)"/>
        <path id="DejaVuSans-37" d="M 525 4666 
L 3525 4666 
L 3525 4397 
L 1831 0 
L 1172 0 
L 2766 4134 
L 525 4134 
L 525 4666 
z
" transform="scale(0.015625)"/>
       </defs>
       <use xlink:href="#DejaVuSans-28"/>
       <use xlink:href="#DejaVuSans-34" transform="translate(39.013672 0)"/>
       <use xlink:href="#DejaVuSans-2d" transform="translate(102.636719 0)"/>
       <use xlink:href="#DejaVuSans-33" transform="translate(138.720703 0)"/>
       <use xlink:href="#DejaVuSans-37" transform="translate(202.34375 0)"/>
       <use xlink:href="#DejaVuSans-20" transform="translate(265.966797 0)"/>
       <use xlink:href="#DejaVuSans-4d" transform="translate(297.753906 0)"/>
       <use xlink:href="#DejaVuSans-68" transform="translate(384.033203 0)"/>
       <use xlink:href="#DejaVuSans-61" transform="translate(447.412109 0)"/>
       <use xlink:href="#DejaVuSans-29" transform="translate(508.691406 0)"/>
      </g>
     </g>
    </g>
    <g id="xtick_3">
     <g id="line2d_3">
      <g>
       <use xlink:href="#m5d67e810e7" x="261.841458" y="334.856" style="stroke: #000000; stroke-width: 0.8"/>
      </g>
     </g>
     <g id="text_3">
      <!-- High -->
      <g transform="translate(250.349271 349.454437) scale(0.1 -0.1)">
       <defs>
        <path id="DejaVuSans-48" d="M 628 4666 
L 1259 4666 
L 1259 2753 
L 3553 2753 
L 3553 4666 
L 4184 4666 
L 4184 0 
L 3553 0 
L 3553 2222 
L 1259 2222 
L 1259 0 
L 628 0 
L 628 4666 
z
" transform="scale(0.015625)"/>
        <path id="DejaVuSans-67" d="M 2906 1791 
Q 2906 2416 2648 2759 
Q 2391 3103 1925 3103 
Q 1463 3103 1205 2759 
Q 947 2416 947 1791 
Q 947 1169 1205 825 
Q 1463 481 1925 481 
Q 2391 481 2648 825 
Q 2906 1169 2906 1791 
z
M 3481 434 
Q 3481 -459 3084 -895 
Q 2688 -1331 1869 -1331 
Q 1566 -1331 1297 -1286 
Q 1028 -1241 775 -1147 
L 775 -588 
Q 1028 -725 1275 -790 
Q 1522 -856 1778 -856 
Q 2344 -856 2625 -561 
Q 2906 -266 2906 331 
L 2906 616 
Q 2728 306 2450 153 
Q 2172 0 1784 0 
Q 1141 0 747 490 
Q 353 981 353 1791 
Q 353 2603 747 3093 
Q 1141 3584 1784 3584 
Q 2172 3584 2450 3431 
Q 2728 3278 2906 2969 
L 2906 3500 
L 3481 3500 
L 3481 434 
z
" transform="scale(0.015625)"/>
       </defs>
       <use xlink:href="#DejaVuSans-48"/>
       <use xlink:href="#DejaVuSans-69" transform="translate(75.195312 0)"/>
       <use xlink:href="#DejaVuSans-67" transform="translate(102.978516 0)"/>
       <use xlink:href="#DejaVuSans-68" transform="translate(166.455078 0)"/>
      </g>
      <!-- (&gt;37 Mha) -->
      <g transform="translate(235.251615 360.65225) scale(0.1 -0.1)">
       <defs>
        <path id="DejaVuSans-3e" d="M 678 3150 
L 678 3719 
L 4684 2266 
L 4684 1747 
L 678 294 
L 678 863 
L 3897 2003 
L 678 3150 
z
" transform="scale(0.015625)"/>
       </defs>
       <use xlink:href="#DejaVuSans-28"/>
       <use xlink:href="#DejaVuSans-3e" transform="translate(39.013672 0)"/>
       <use xlink:href="#DejaVuSans-33" transform="translate(122.802734 0)"/>
       <use xlink:href="#DejaVuSans-37" transform="translate(186.425781 0)"/>
       <use xlink:href="#DejaVuSans-20" transform="translate(250.048828 0)"/>
       <use xlink:href="#DejaVuSans-4d" transform="translate(281.835938 0)"/>
       <use xlink:href="#DejaVuSans-68" transform="translate(368.115234 0)"/>
       <use xlink:href="#DejaVuSans-61" transform="translate(431.494141 0)"/>
       <use xlink:href="#DejaVuSans-29" transform="translate(492.773438 0)"/>
      </g>
     </g>
    </g>
   </g>
   <g id="matplotlib.axis_2">
    <g id="ytick_1">
     <g id="line2d_4">
      <defs>
       <path id="md19666525b" d="M 0 0 
L -3.5 0 
" style="stroke: #000000; stroke-width: 0.8"/>
      </defs>
      <g>
       <use xlink:href="#md19666525b" x="40.603125" y="334.856" style="stroke: #000000; stroke-width: 0.8"/>
      </g>
     </g>
     <g id="text_4">
      <!-- 0 -->
      <g transform="translate(27.240625 338.655219) scale(0.1 -0.1)">
       <defs>
        <path id="DejaVuSans-30" d="M 2034 4250 
Q 1547 4250 1301 3770 
Q 1056 3291 1056 2328 
Q 1056 1369 1301 889 
Q 1547 409 2034 409 
Q 2525 409 2770 889 
Q 3016 1369 3016 2328 
Q 3016 3291 2770 3770 
Q 2525 4250 2034 4250 
z
M 2034 4750 
Q 2819 4750 3233 4129 
Q 3647 3509 3647 2328 
Q 3647 1150 3233 529 
Q 2819 -91 2034 -91 
Q 1250 -91 836 529 
Q 422 1150 422 2328 
Q 422 3509 836 4129 
Q 1250 4750 2034 4750 
z
" transform="scale(0.015625)"/>
       </defs>
       <use xlink:href="#DejaVuSans-30"/>
      </g>
     </g>
    </g>
    <g id="ytick_2">
     <g id="line2d_5">
      <g>
       <use xlink:href="#md19666525b" x="40.603125" y="276.454268" style="stroke: #000000; stroke-width: 0.8"/>
      </g>
     </g>
     <g id="text_5">
      <!-- 10 -->
      <g transform="translate(20.878125 280.253487) scale(0.1 -0.1)">
       <defs>
        <path id="DejaVuSans-31" d="M 794 531 
L 1825 531 
L 1825 4091 
L 703 3866 
L 703 4441 
L 1819 4666 
L 2450 4666 
L 2450 531 
L 3481 531 
L 3481 0 
L 794 0 
L 794 531 
z
" transform="scale(0.015625)"/>
       </defs>
       <use xlink:href="#DejaVuSans-31"/>
       <use xlink:href="#DejaVuSans-30" transform="translate(63.623047 0)"/>
      </g>
     </g>
    </g>
    <g id="ytick_3">
     <g id="line2d_6">
      <g>
       <use xlink:href="#md19666525b" x="40.603125" y="218.052537" style="stroke: #000000; stroke-width: 0.8"/>
      </g>
     </g>
     <g id="text_6">
      <!-- 20 -->
      <g transform="translate(20.878125 221.851756) scale(0.1 -0.1)">
       <defs>
        <path id="DejaVuSans-32" d="M 1228 531 
L 3431 531 
L 3431 0 
L 469 0 
L 469 531 
Q 828 903 1448 1529 
Q 2069 2156 2228 2338 
Q 2531 2678 2651 2914 
Q 2772 3150 2772 3378 
Q 2772 3750 2511 3984 
Q 2250 4219 1831 4219 
Q 1534 4219 1204 4116 
Q 875 4013 500 3803 
L 500 4441 
Q 881 4594 1212 4672 
Q 1544 4750 1819 4750 
Q 2544 4750 2975 4387 
Q 3406 4025 3406 3419 
Q 3406 3131 3298 2873 
Q 3191 2616 2906 2266 
Q 2828 2175 2409 1742 
Q 1991 1309 1228 531 
z
" transform="scale(0.015625)"/>
       </defs>
       <use xlink:href="#DejaVuSans-32"/>
       <use xlink:href="#DejaVuSans-30" transform="translate(63.623047 0)"/>
      </g>
     </g>
    </g>
    <g id="ytick_4">
     <g id="line2d_7">
      <g>
       <use xlink:href="#md19666525b" x="40.603125" y="159.650805" style="stroke: #000000; stroke-width: 0.8"/>
      </g>
     </g>
     <g id="text_7">
      <!-- 30 -->
      <g transform="translate(20.878125 163.450024) scale(0.1 -0.1)">
       <use xlink:href="#DejaVuSans-33"/>
       <use xlink:href="#DejaVuSans-30" transform="translate(63.623047 0)"/>
      </g>
     </g>
    </g>
    <g id="ytick_5">
     <g id="line2d_8">
      <g>
       <use xlink:href="#md19666525b" x="40.603125" y="101.249074" style="stroke: #000000; stroke-width: 0.8"/>
      </g>
     </g>
     <g id="text_8">
      <!-- 40 -->
      <g transform="translate(20.878125 105.048292) scale(0.1 -0.1)">
       <use xlink:href="#DejaVuSans-34"/>
       <use xlink:href="#DejaVuSans-30" transform="translate(63.623047 0)"/>
      </g>
     </g>
    </g>
    <g id="text_9">
     <!-- Number of Countries -->
     <g transform="translate(14.798438 252.005813) rotate(-90) scale(0.1 -0.1)">
      <defs>
       <path id="DejaVuSans-4e" d="M 628 4666 
L 1478 4666 
L 3547 763 
L 3547 4666 
L 4159 4666 
L 4159 0 
L 3309 0 
L 1241 3903 
L 1241 0 
L 628 0 
L 628 4666 
z
" transform="scale(0.015625)"/>
       <path id="DejaVuSans-62" d="M 3116 1747 
Q 3116 2381 2855 2742 
Q 2594 3103 2138 3103 
Q 1681 3103 1420 2742 
Q 1159 2381 1159 1747 
Q 1159 1113 1420 752 
Q 1681 391 2138 391 
Q 2594 391 2855 752 
Q 3116 1113 3116 1747 
z
M 1159 2969 
Q 1341 3281 1617 3432 
Q 1894 3584 2278 3584 
Q 2916 3584 3314 3078 
Q 3713 2572 3713 1747 
Q 3713 922 3314 415 
Q 2916 -91 2278 -91 
Q 1894 -91 1617 61 
Q 1341 213 1159 525 
L 1159 0 
L 581 0 
L 581 4863 
L 1159 4863 
L 1159 2969 
z
" transform="scale(0.015625)"/>
       <path id="DejaVuSans-72" d="M 2631 2963 
Q 2534 3019 2420 3045 
Q 2306 3072 2169 3072 
Q 1681 3072 1420 2755 
Q 1159 2438 1159 1844 
L 1159 0 
L 581 0 
L 581 3500 
L 1159 3500 
L 1159 2956 
Q 1341 3275 1631 3429 
Q 1922 3584 2338 3584 
Q 2397 3584 2469 3576 
Q 2541 3569 2628 3553 
L 2631 2963 
z
" transform="scale(0.015625)"/>
       <path id="DejaVuSans-66" d="M 2375 4863 
L 2375 4384 
L 1825 4384 
Q 1516 4384 1395 4259 
Q 1275 4134 1275 3809 
L 1275 3500 
L 2222 3500 
L 2222 3053 
L 1275 3053 
L 1275 0 
L 697 0 
L 697 3053 
L 147 3053 
L 147 3500 
L 697 3500 
L 697 3744 
Q 697 4328 969 4595 
Q 1241 4863 1831 4863 
L 2375 4863 
z
" transform="scale(0.015625)"/>
       <path id="DejaVuSans-43" d="M 4122 4306 
L 4122 3641 
Q 3803 3938 3442 4084 
Q 3081 4231 2675 4231 
Q 1875 4231 1450 3742 
Q 1025 3253 1025 2328 
Q 1025 1406 1450 917 
Q 1875 428 2675 428 
Q 3081 428 3442 575 
Q 3803 722 4122 1019 
L 4122 359 
Q 3791 134 3420 21 
Q 3050 -91 2638 -91 
Q 1578 -91 968 557 
Q 359 1206 359 2328 
Q 359 3453 968 4101 
Q 1578 4750 2638 4750 
Q 3056 4750 3426 4639 
Q 3797 4528 4122 4306 
z
" transform="scale(0.015625)"/>
       <path id="DejaVuSans-6e" d="M 3513 2113 
L 3513 0 
L 2938 0 
L 2938 2094 
Q 2938 2591 2744 2837 
Q 2550 3084 2163 3084 
Q 1697 3084 1428 2787 
Q 1159 2491 1159 1978 
L 1159 0 
L 581 0 
L 581 3500 
L 1159 3500 
L 1159 2956 
Q 1366 3272 1645 3428 
Q 1925 3584 2291 3584 
Q 2894 3584 3203 3211 
Q 3513 2838 3513 2113 
z
" transform="scale(0.015625)"/>
       <path id="DejaVuSans-74" d="M 1172 4494 
L 1172 3500 
L 2356 3500 
L 2356 3053 
L 1172 3053 
L 1172 1153 
Q 1172 725 1289 603 
Q 1406 481 1766 481 
L 2356 481 
L 2356 0 
L 1766 0 
Q 1100 0 847 248 
Q 594 497 594 1153 
L 594 3053 
L 172 3053 
L 172 3500 
L 594 3500 
L 594 4494 
L 1172 4494 
z
" transform="scale(0.015625)"/>
       <path id="DejaVuSans-73" d="M 2834 3397 
L 2834 2853 
Q 2591 2978 2328 3040 
Q 2066 3103 1784 3103 
Q 1356 3103 1142 2972 
Q 928 2841 928 2578 
Q 928 2378 1081 2264 
Q 1234 2150 1697 2047 
L 1894 2003 
Q 2506 1872 2764 1633 
Q 3022 1394 3022 966 
Q 3022 478 2636 193 
Q 2250 -91 1575 -91 
Q 1294 -91 989 -36 
Q 684 19 347 128 
L 347 722 
Q 666 556 975 473 
Q 1284 391 1588 391 
Q 1994 391 2212 530 
Q 2431 669 2431 922 
Q 2431 1156 2273 1281 
Q 2116 1406 1581 1522 
L 1381 1569 
Q 847 1681 609 1914 
Q 372 2147 372 2553 
Q 372 3047 722 3315 
Q 1072 3584 1716 3584 
Q 2034 3584 2315 3537 
Q 2597 3491 2834 3397 
z
" transform="scale(0.015625)"/>
      </defs>
      <use xlink:href="#DejaVuSans-4e"/>
      <use xlink:href="#DejaVuSans-75" transform="translate(74.804688 0)"/>
      <use xlink:href="#DejaVuSans-6d" transform="translate(138.183594 0)"/>
      <use xlink:href="#DejaVuSans-62" transform="translate(235.595703 0)"/>
      <use xlink:href="#DejaVuSans-65" transform="translate(299.072266 0)"/>
      <use xlink:href="#DejaVuSans-72" transform="translate(360.595703 0)"/>
      <use xlink:href="#DejaVuSans-20" transform="translate(401.708984 0)"/>
      <use xlink:href="#DejaVuSans-6f" transform="translate(433.496094 0)"/>
      <use xlink:href="#DejaVuSans-66" transform="translate(494.677734 0)"/>
      <use xlink:href="#DejaVuSans-20" transform="translate(529.882812 0)"/>
      <use xlink:href="#DejaVuSans-43" transform="translate(561.669922 0)"/>
      <use xlink:href="#DejaVuSans-6f" transform="translate(631.494141 0)"/>
      <use xlink:href="#DejaVuSans-75" transform="translate(692.675781 0)"/>
      <use xlink:href="#DejaVuSans-6e" transform="translate(756.054688 0)"/>
      <use xlink:href="#DejaVuSans-74" transform="translate(819.433594 0)"/>
      <use xlink:href="#DejaVuSans-72" transform="translate(858.642578 0)"/>
      <use xlink:href="#DejaVuSans-69" transform="translate(899.755859 0)"/>
      <use xlink:href="#DejaVuSans-65" transform="translate(927.539062 0)"/>
      <use xlink:href="#DejaVuSans-73" transform="translate(989.0625 0)"/>
     </g>
    </g>
   </g>
   <g id="patch_9">
    <path d="M 40.603125 334.856 
L 40.603125 65.04 
" style="fill: none; stroke: #000000; stroke-width: 0.8; stroke-linejoin: miter; stroke-linecap: square"/>
   </g>
   <g id="patch_10">
    <path d="M 306.089125 334.856 
L 306.089125 65.04 
" style="fill: none; stroke: #000000; stroke-width: 0.8; stroke-linejoin: miter; stroke-linecap: square"/>
   </g>
   <g id="patch_11">
    <path d="M 40.603125 334.856 
L 306.089125 334.856 
" style="fill: none; stroke: #000000; stroke-width: 0.8; stroke-linejoin: miter; stroke-linecap: square"/>
   </g>
   <g id="patch_12">
    <path d="M 40.603125 65.04 
L 306.089125 65.04 
" style="fill: none; stroke: #000000; stroke-width: 0.8; stroke-linejoin: miter; stroke-linecap: square"/>
   </g>
   <g id="text_10">
    <!-- Threshold 10% -->
    <g transform="translate(128.537375 59.04) scale(0.12 -0.12)">
     <defs>
      <path id="DejaVuSans-54" d="M -19 4666 
L 3928 4666 
L 3928 4134 
L 2272 4134 
L 2272 0 
L 1638 0 
L 1638 4134 
L -19 4134 
L -19 4666 
z
" transform="scale(0.015625)"/>
      <path id="DejaVuSans-6c" d="M 603 4863 
L 1178 4863 
L 1178 0 
L 603 0 
L 603 4863 
z
" transform="scale(0.015625)"/>
      <path id="DejaVuSans-25" d="M 4653 2053 
Q 4381 2053 4226 1822 
Q 4072 1591 4072 1178 
Q 4072 772 4226 539 
Q 4381 306 4653 306 
Q 4919 306 5073 539 
Q 5228 772 5228 1178 
Q 5228 1588 5073 1820 
Q 4919 2053 4653 2053 
z
M 4653 2450 
Q 5147 2450 5437 2106 
Q 5728 1763 5728 1178 
Q 5728 594 5436 251 
Q 5144 -91 4653 -91 
Q 4153 -91 3862 251 
Q 3572 594 3572 1178 
Q 3572 1766 3864 2108 
Q 4156 2450 4653 2450 
z
M 1428 4353 
Q 1159 4353 1004 4120 
Q 850 3888 850 3481 
Q 850 3069 1003 2837 
Q 1156 2606 1428 2606 
Q 1700 2606 1854 2837 
Q 2009 3069 2009 3481 
Q 2009 3884 1853 4118 
Q 1697 4353 1428 4353 
z
M 4250 4750 
L 4750 4750 
L 1831 -91 
L 1331 -91 
L 4250 4750 
z
M 1428 4750 
Q 1922 4750 2215 4408 
Q 2509 4066 2509 3481 
Q 2509 2891 2217 2550 
Q 1925 2209 1428 2209 
Q 931 2209 642 2551 
Q 353 2894 353 3481 
Q 353 4063 643 4406 
Q 934 4750 1428 4750 
z
" transform="scale(0.015625)"/>
     </defs>
     <use xlink:href="#DejaVuSans-54"/>
     <use xlink:href="#DejaVuSans-68" transform="translate(61.083984 0)"/>
     <use xlink:href="#DejaVuSans-72" transform="translate(124.462891 0)"/>
     <use xlink:href="#DejaVuSans-65" transform="translate(163.326172 0)"/>
     <use xlink:href="#DejaVuSans-73" transform="translate(224.849609 0)"/>
     <use xlink:href="#DejaVuSans-68" transform="translate(276.949219 0)"/>
     <use xlink:href="#DejaVuSans-6f" transform="translate(340.328125 0)"/>
     <use xlink:href="#DejaVuSans-6c" transform="translate(401.509766 0)"/>
     <use xlink:href="#DejaVuSans-64" transform="translate(429.292969 0)"/>
     <use xlink:href="#DejaVuSans-20" transform="translate(492.769531 0)"/>
     <use xlink:href="#DejaVuSans-31" transform="translate(524.556641 0)"/>
     <use xlink:href="#DejaVuSans-30" transform="translate(588.179688 0)"/>
     <use xlink:href="#DejaVuSans-25" transform="translate(651.802734 0)"/>
    </g>
   </g>
  </g>
  <g id="axes_2">
   <g id="patch_13">
    <path d="M 320.389125 334.856 
L 585.875125 334.856 
L 585.875125 65.04 
L 320.389125 65.04 
z
" style="fill: #ffffff"/>
   </g>
   <g id="patch_14">
    <path d="M 342.512958 334.856 
L 364.636792 334.856 
L 364.636792 77.888381 
L 342.512958 77.888381 
z
" clip-path="url(#p30bfabc5a7)" style="fill: #f4a83a"/>
   </g>
   <g id="patch_15">
    <path d="M 431.008292 334.856 
L 453.132125 334.856 
L 453.132125 235.573056 
L 431.008292 235.573056 
z
" clip-path="url(#p30bfabc5a7)" style="fill: #f4a83a"/>
   </g>
   <g id="patch_16">
    <path d="M 519.503625 334.856 
L 541.627458 334.856 
L 541.627458 305.655134 
L 519.503625 305.655134 
z
" clip-path="url(#p30bfabc5a7)" style="fill: #f4a83a"/>
   </g>
   <g id="patch_17">
    <path d="M 364.636792 334.856 
L 386.760625 334.856 
L 386.760625 89.568727 
L 364.636792 89.568727 
z
" clip-path="url(#p30bfabc5a7)" style="fill: #4caf50"/>
   </g>
   <g id="patch_18">
    <path d="M 453.132125 334.856 
L 475.255958 334.856 
L 475.255958 188.851671 
L 453.132125 188.851671 
z
" clip-path="url(#p30bfabc5a7)" style="fill: #4caf50"/>
   </g>
   <g id="patch_19">
    <path d="M 541.627458 334.856 
L 563.751292 334.856 
L 563.751292 305.655134 
L 541.627458 305.655134 
z
" clip-path="url(#p30bfabc5a7)" style="fill: #4caf50"/>
   </g>
   <g id="matplotlib.axis_3">
    <g id="xtick_4">
     <g id="line2d_9">
      <g>
       <use xlink:href="#m5d67e810e7" x="364.636792" y="334.856" style="stroke: #000000; stroke-width: 0.8"/>
      </g>
     </g>
     <g id="text_11">
      <!-- Low -->
      <g transform="translate(354.789917 349.454437) scale(0.1 -0.1)">
       <use xlink:href="#DejaVuSans-4c"/>
       <use xlink:href="#DejaVuSans-6f" transform="translate(53.962891 0)"/>
       <use xlink:href="#DejaVuSans-77" transform="translate(115.144531 0)"/>
      </g>
      <!-- (&lt;4 Mha) -->
      <g transform="translate(341.228198 360.65225) scale(0.1 -0.1)">
       <use xlink:href="#DejaVuSans-28"/>
       <use xlink:href="#DejaVuSans-3c" transform="translate(39.013672 0)"/>
       <use xlink:href="#DejaVuSans-34" transform="translate(122.802734 0)"/>
       <use xlink:href="#DejaVuSans-20" transform="translate(186.425781 0)"/>
       <use xlink:href="#DejaVuSans-4d" transform="translate(218.212891 0)"/>
       <use xlink:href="#DejaVuSans-68" transform="translate(304.492188 0)"/>
       <use xlink:href="#DejaVuSans-61" transform="translate(367.871094 0)"/>
       <use xlink:href="#DejaVuSans-29" transform="translate(429.150391 0)"/>
      </g>
     </g>
    </g>
    <g id="xtick_5">
     <g id="line2d_10">
      <g>
       <use xlink:href="#m5d67e810e7" x="453.132125" y="334.856" style="stroke: #000000; stroke-width: 0.8"/>
      </g>
     </g>
     <g id="text_12">
      <!-- Medium -->
      <g transform="translate(433.139156 349.454437) scale(0.1 -0.1)">
       <use xlink:href="#DejaVuSans-4d"/>
       <use xlink:href="#DejaVuSans-65" transform="translate(86.279297 0)"/>
       <use xlink:href="#DejaVuSans-64" transform="translate(147.802734 0)"/>
       <use xlink:href="#DejaVuSans-69" transform="translate(211.279297 0)"/>
       <use xlink:href="#DejaVuSans-75" transform="translate(239.0625 0)"/>
       <use xlink:href="#DejaVuSans-6d" transform="translate(302.441406 0)"/>
      </g>
      <!-- (4-37 Mha) -->
      <g transform="translate(425.746969 360.65225) scale(0.1 -0.1)">
       <use xlink:href="#DejaVuSans-28"/>
       <use xlink:href="#DejaVuSans-34" transform="translate(39.013672 0)"/>
       <use xlink:href="#DejaVuSans-2d" transform="translate(102.636719 0)"/>
       <use xlink:href="#DejaVuSans-33" transform="translate(138.720703 0)"/>
       <use xlink:href="#DejaVuSans-37" transform="translate(202.34375 0)"/>
       <use xlink:href="#DejaVuSans-20" transform="translate(265.966797 0)"/>
       <use xlink:href="#DejaVuSans-4d" transform="translate(297.753906 0)"/>
       <use xlink:href="#DejaVuSans-68" transform="translate(384.033203 0)"/>
       <use xlink:href="#DejaVuSans-61" transform="translate(447.412109 0)"/>
       <use xlink:href="#DejaVuSans-29" transform="translate(508.691406 0)"/>
      </g>
     </g>
    </g>
    <g id="xtick_6">
     <g id="line2d_11">
      <g>
       <use xlink:href="#m5d67e810e7" x="541.627458" y="334.856" style="stroke: #000000; stroke-width: 0.8"/>
      </g>
     </g>
     <g id="text_13">
      <!-- High -->
      <g transform="translate(530.135271 349.454437) scale(0.1 -0.1)">
       <use xlink:href="#DejaVuSans-48"/>
       <use xlink:href="#DejaVuSans-69" transform="translate(75.195312 0)"/>
       <use xlink:href="#DejaVuSans-67" transform="translate(102.978516 0)"/>
       <use xlink:href="#DejaVuSans-68" transform="translate(166.455078 0)"/>
      </g>
      <!-- (&gt;37 Mha) -->
      <g transform="translate(515.037615 360.65225) scale(0.1 -0.1)">
       <use xlink:href="#DejaVuSans-28"/>
       <use xlink:href="#DejaVuSans-3e" transform="translate(39.013672 0)"/>
       <use xlink:href="#DejaVuSans-33" transform="translate(122.802734 0)"/>
       <use xlink:href="#DejaVuSans-37" transform="translate(186.425781 0)"/>
       <use xlink:href="#DejaVuSans-20" transform="translate(250.048828 0)"/>
       <use xlink:href="#DejaVuSans-4d" transform="translate(281.835938 0)"/>
       <use xlink:href="#DejaVuSans-68" transform="translate(368.115234 0)"/>
       <use xlink:href="#DejaVuSans-61" transform="translate(431.494141 0)"/>
       <use xlink:href="#DejaVuSans-29" transform="translate(492.773438 0)"/>
      </g>
     </g>
    </g>
   </g>
   <g id="matplotlib.axis_4">
    <g id="ytick_6">
     <g id="line2d_12">
      <g>
       <use xlink:href="#md19666525b" x="320.389125" y="334.856" style="stroke: #000000; stroke-width: 0.8"/>
      </g>
     </g>
    </g>
    <g id="ytick_7">
     <g id="line2d_13">
      <g>
       <use xlink:href="#md19666525b" x="320.389125" y="276.454268" style="stroke: #000000; stroke-width: 0.8"/>
      </g>
     </g>
    </g>
    <g id="ytick_8">
     <g id="line2d_14">
      <g>
       <use xlink:href="#md19666525b" x="320.389125" y="218.052537" style="stroke: #000000; stroke-width: 0.8"/>
      </g>
     </g>
    </g>
    <g id="ytick_9">
     <g id="line2d_15">
      <g>
       <use xlink:href="#md19666525b" x="320.389125" y="159.650805" style="stroke: #000000; stroke-width: 0.8"/>
      </g>
     </g>
    </g>
    <g id="ytick_10">
     <g id="line2d_16">
      <g>
       <use xlink:href="#md19666525b" x="320.389125" y="101.249074" style="stroke: #000000; stroke-width: 0.8"/>
      </g>
     </g>
    </g>
   </g>
   <g id="patch_20">
    <path d="M 320.389125 334.856 
L 320.389125 65.04 
" style="fill: none; stroke: #000000; stroke-width: 0.8; stroke-linejoin: miter; stroke-linecap: square"/>
   </g>
   <g id="patch_21">
    <path d="M 585.875125 334.856 
L 585.875125 65.04 
" style="fill: none; stroke: #000000; stroke-width: 0.8; stroke-linejoin: miter; stroke-linecap: square"/>
   </g>
   <g id="patch_22">
    <path d="M 320.389125 334.856 
L 585.875125 334.856 
" style="fill: none; stroke: #000000; stroke-width: 0.8; stroke-linejoin: miter; stroke-linecap: square"/>
   </g>
   <g id="patch_23">
    <path d="M 320.389125 65.04 
L 585.875125 65.04 
" style="fill: none; stroke: #000000; stroke-width: 0.8; stroke-linejoin: miter; stroke-linecap: square"/>
   </g>
   <g id="text_14">
    <!-- Threshold 20% -->
    <g transform="translate(408.323375 59.04) scale(0.12 -0.12)">
     <use xlink:href="#DejaVuSans-54"/>
     <use xlink:href="#DejaVuSans-68" transform="translate(61.083984 0)"/>
     <use xlink:href="#DejaVuSans-72" transform="translate(124.462891 0)"/>
     <use xlink:href="#DejaVuSans-65" transform="translate(163.326172 0)"/>
     <use xlink:href="#DejaVuSans-73" transform="translate(224.849609 0)"/>
     <use xlink:href="#DejaVuSans-68" transform="translate(276.949219 0)"/>
     <use xlink:href="#DejaVuSans-6f" transform="translate(340.328125 0)"/>
     <use xlink:href="#DejaVuSans-6c" transform="translate(401.509766 0)"/>
     <use xlink:href="#DejaVuSans-64" transform="translate(429.292969 0)"/>
     <use xlink:href="#DejaVuSans-20" transform="translate(492.769531 0)"/>
     <use xlink:href="#DejaVuSans-32" transform="translate(524.556641 0)"/>
     <use xlink:href="#DejaVuSans-30" transform="translate(588.179688 0)"/>
     <use xlink:href="#DejaVuSans-25" transform="translate(651.802734 0)"/>
    </g>
   </g>
  </g>
  <g id="axes_3">
   <g id="patch_24">
    <path d="M 600.175125 334.856 
L 865.661125 334.856 
L 865.661125 65.04 
L 600.175125 65.04 
z
" style="fill: #ffffff"/>
   </g>
   <g id="patch_25">
    <path d="M 622.298958 334.856 
L 644.422792 334.856 
L 644.422792 77.888381 
L 622.298958 77.888381 
z
" clip-path="url(#pb9eabc1eda)" style="fill: #f4a83a"/>
   </g>
   <g id="patch_26">
    <path d="M 710.794292 334.856 
L 732.918125 334.856 
L 732.918125 235.573056 
L 710.794292 235.573056 
z
" clip-path="url(#pb9eabc1eda)" style="fill: #f4a83a"/>
   </g>
   <g id="patch_27">
    <path d="M 799.289625 334.856 
L 821.413458 334.856 
L 821.413458 305.655134 
L 799.289625 305.655134 
z
" clip-path="url(#pb9eabc1eda)" style="fill: #f4a83a"/>
   </g>
   <g id="patch_28">
    <path d="M 644.422792 334.856 
L 666.546625 334.856 
L 666.546625 89.568727 
L 644.422792 89.568727 
z
" clip-path="url(#pb9eabc1eda)" style="fill: #4caf50"/>
   </g>
   <g id="patch_29">
    <path d="M 732.918125 334.856 
L 755.041958 334.856 
L 755.041958 188.851671 
L 732.918125 188.851671 
z
" clip-path="url(#pb9eabc1eda)" style="fill: #4caf50"/>
   </g>
   <g id="patch_30">
    <path d="M 821.413458 334.856 
L 843.537292 334.856 
L 843.537292 305.655134 
L 821.413458 305.655134 
z
" clip-path="url(#pb9eabc1eda)" style="fill: #4caf50"/>
   </g>
   <g id="matplotlib.axis_5">
    <g id="xtick_7">
     <g id="line2d_17">
      <g>
       <use xlink:href="#m5d67e810e7" x="644.422792" y="334.856" style="stroke: #000000; stroke-width: 0.8"/>
      </g>
     </g>
     <g id="text_15">
      <!-- Low -->
      <g transform="translate(634.575917 349.454437) scale(0.1 -0.1)">
       <use xlink:href="#DejaVuSans-4c"/>
       <use xlink:href="#DejaVuSans-6f" transform="translate(53.962891 0)"/>
       <use xlink:href="#DejaVuSans-77" transform="translate(115.144531 0)"/>
      </g>
      <!-- (&lt;4 Mha) -->
      <g transform="translate(621.014198 360.65225) scale(0.1 -0.1)">
       <use xlink:href="#DejaVuSans-28"/>
       <use xlink:href="#DejaVuSans-3c" transform="translate(39.013672 0)"/>
       <use xlink:href="#DejaVuSans-34" transform="translate(122.802734 0)"/>
       <use xlink:href="#DejaVuSans-20" transform="translate(186.425781 0)"/>
       <use xlink:href="#DejaVuSans-4d" transform="translate(218.212891 0)"/>
       <use xlink:href="#DejaVuSans-68" transform="translate(304.492188 0)"/>
       <use xlink:href="#DejaVuSans-61" transform="translate(367.871094 0)"/>
       <use xlink:href="#DejaVuSans-29" transform="translate(429.150391 0)"/>
      </g>
     </g>
    </g>
    <g id="xtick_8">
     <g id="line2d_18">
      <g>
       <use xlink:href="#m5d67e810e7" x="732.918125" y="334.856" style="stroke: #000000; stroke-width: 0.8"/>
      </g>
     </g>
     <g id="text_16">
      <!-- Medium -->
      <g transform="translate(712.925156 349.454437) scale(0.1 -0.1)">
       <use xlink:href="#DejaVuSans-4d"/>
       <use xlink:href="#DejaVuSans-65" transform="translate(86.279297 0)"/>
       <use xlink:href="#DejaVuSans-64" transform="translate(147.802734 0)"/>
       <use xlink:href="#DejaVuSans-69" transform="translate(211.279297 0)"/>
       <use xlink:href="#DejaVuSans-75" transform="translate(239.0625 0)"/>
       <use xlink:href="#DejaVuSans-6d" transform="translate(302.441406 0)"/>
      </g>
      <!-- (4-37 Mha) -->
      <g transform="translate(705.532969 360.65225) scale(0.1 -0.1)">
       <use xlink:href="#DejaVuSans-28"/>
       <use xlink:href="#DejaVuSans-34" transform="translate(39.013672 0)"/>
       <use xlink:href="#DejaVuSans-2d" transform="translate(102.636719 0)"/>
       <use xlink:href="#DejaVuSans-33" transform="translate(138.720703 0)"/>
       <use xlink:href="#DejaVuSans-37" transform="translate(202.34375 0)"/>
       <use xlink:href="#DejaVuSans-20" transform="translate(265.966797 0)"/>
       <use xlink:href="#DejaVuSans-4d" transform="translate(297.753906 0)"/>
       <use xlink:href="#DejaVuSans-68" transform="translate(384.033203 0)"/>
       <use xlink:href="#DejaVuSans-61" transform="translate(447.412109 0)"/>
       <use xlink:href="#DejaVuSans-29" transform="translate(508.691406 0)"/>
      </g>
     </g>
    </g>
    <g id="xtick_9">
     <g id="line2d_19">
      <g>
       <use xlink:href="#m5d67e810e7" x="821.413458" y="334.856" style="stroke: #000000; stroke-width: 0.8"/>
      </g>
     </g>
     <g id="text_17">
      <!-- High -->
      <g transform="translate(809.921271 349.454437) scale(0.1 -0.1)">
       <use xlink:href="#DejaVuSans-48"/>
       <use xlink:href="#DejaVuSans-69" transform="translate(75.195312 0)"/>
       <use xlink:href="#DejaVuSans-67" transform="translate(102.978516 0)"/>
       <use xlink:href="#DejaVuSans-68" transform="translate(166.455078 0)"/>
      </g>
      <!-- (&gt;37 Mha) -->
      <g transform="translate(794.823615 360.65225) scale(0.1 -0.1)">
       <use xlink:href="#DejaVuSans-28"/>
       <use xlink:href="#DejaVuSans-3e" transform="translate(39.013672 0)"/>
       <use xlink:href="#DejaVuSans-33" transform="translate(122.802734 0)"/>
       <use xlink:href="#DejaVuSans-37" transform="translate(186.425781 0)"/>
       <use xlink:href="#DejaVuSans-20" transform="translate(250.048828 0)"/>
       <use xlink:href="#DejaVuSans-4d" transform="translate(281.835938 0)"/>
       <use xlink:href="#DejaVuSans-68" transform="translate(368.115234 0)"/>
       <use xlink:href="#DejaVuSans-61" transform="translate(431.494141 0)"/>
       <use xlink:href="#DejaVuSans-29" transform="translate(492.773438 0)"/>
      </g>
     </g>
    </g>
   </g>
   <g id="matplotlib.axis_6">
    <g id="ytick_11">
     <g id="line2d_20">
      <g>
       <use xlink:href="#md19666525b" x="600.175125" y="334.856" style="stroke: #000000; stroke-width: 0.8"/>
      </g>
     </g>
    </g>
    <g id="ytick_12">
     <g id="line2d_21">
      <g>
       <use xlink:href="#md19666525b" x="600.175125" y="276.454268" style="stroke: #000000; stroke-width: 0.8"/>
      </g>
     </g>
    </g>
    <g id="ytick_13">
     <g id="line2d_22">
      <g>
       <use xlink:href="#md19666525b" x="600.175125" y="218.052537" style="stroke: #000000; stroke-width: 0.8"/>
      </g>
     </g>
    </g>
    <g id="ytick_14">
     <g id="line2d_23">
      <g>
       <use xlink:href="#md19666525b" x="600.175125" y="159.650805" style="stroke: #000000; stroke-width: 0.8"/>
      </g>
     </g>
    </g>
    <g id="ytick_15">
     <g id="line2d_24">
      <g>
       <use xlink:href="#md19666525b" x="600.175125" y="101.249074" style="stroke: #000000; stroke-width: 0.8"/>
      </g>
     </g>
    </g>
   </g>
   <g id="patch_31">
    <path d="M 600.175125 334.856 
L 600.175125 65.04 
" style="fill: none; stroke: #000000; stroke-width: 0.8; stroke-linejoin: miter; stroke-linecap: square"/>
   </g>
   <g id="patch_32">
    <path d="M 865.661125 334.856 
L 865.661125 65.04 
" style="fill: none; stroke: #000000; stroke-width: 0.8; stroke-linejoin: miter; stroke-linecap: square"/>
   </g>
   <g id="patch_33">
    <path d="M 600.175125 334.856 
L 865.661125 334.856 
" style="fill: none; stroke: #000000; stroke-width: 0.8; stroke-linejoin: miter; stroke-linecap: square"/>
   </g>
   <g id="patch_34">
    <path d="M 600.175125 65.04 
L 865.661125 65.04 
" style="fill: none; stroke: #000000; stroke-width: 0.8; stroke-linejoin: miter; stroke-linecap: square"/>
   </g>
   <g id="text_18">
    <!-- Threshold 30% -->
    <g transform="translate(688.109375 59.04) scale(0.12 -0.12)">
     <use xlink:href="#DejaVuSans-54"/>
     <use xlink:href="#DejaVuSans-68" transform="translate(61.083984 0)"/>
     <use xlink:href="#DejaVuSans-72" transform="translate(124.462891 0)"/>
     <use xlink:href="#DejaVuSans-65" transform="translate(163.326172 0)"/>
     <use xlink:href="#DejaVuSans-73" transform="translate(224.849609 0)"/>
     <use xlink:href="#DejaVuSans-68" transform="translate(276.949219 0)"/>
     <use xlink:href="#DejaVuSans-6f" transform="translate(340.328125 0)"/>
     <use xlink:href="#DejaVuSans-6c" transform="translate(401.509766 0)"/>
     <use xlink:href="#DejaVuSans-64" transform="translate(429.292969 0)"/>
     <use xlink:href="#DejaVuSans-20" transform="translate(492.769531 0)"/>
     <use xlink:href="#DejaVuSans-33" transform="translate(524.556641 0)"/>
     <use xlink:href="#DejaVuSans-30" transform="translate(588.179688 0)"/>
     <use xlink:href="#DejaVuSans-25" transform="translate(651.802734 0)"/>
    </g>
   </g>
  </g>
  <g id="axes_4">
   <g id="patch_35">
    <path d="M 879.961125 334.856 
L 1145.447125 334.856 
L 1145.447125 65.04 
L 879.961125 65.04 
z
" style="fill: #ffffff"/>
   </g>
   <g id="patch_36">
    <path d="M 902.084958 334.856 
L 924.208792 334.856 
L 924.208792 77.888381 
L 902.084958 77.888381 
z
" clip-path="url(#pe77e4602da)" style="fill: #f4a83a"/>
   </g>
   <g id="patch_37">
    <path d="M 990.580292 334.856 
L 1012.704125 334.856 
L 1012.704125 235.573056 
L 990.580292 235.573056 
z
" clip-path="url(#pe77e4602da)" style="fill: #f4a83a"/>
   </g>
   <g id="patch_38">
    <path d="M 1079.075625 334.856 
L 1101.199458 334.856 
L 1101.199458 305.655134 
L 1079.075625 305.655134 
z
" clip-path="url(#pe77e4602da)" style="fill: #f4a83a"/>
   </g>
   <g id="patch_39">
    <path d="M 924.208792 334.856 
L 946.332625 334.856 
L 946.332625 89.568727 
L 924.208792 89.568727 
z
" clip-path="url(#pe77e4602da)" style="fill: #4caf50"/>
   </g>
   <g id="patch_40">
    <path d="M 1012.704125 334.856 
L 1034.827958 334.856 
L 1034.827958 188.851671 
L 1012.704125 188.851671 
z
" clip-path="url(#pe77e4602da)" style="fill: #4caf50"/>
   </g>
   <g id="patch_41">
    <path d="M 1101.199458 334.856 
L 1123.323292 334.856 
L 1123.323292 305.655134 
L 1101.199458 305.655134 
z
" clip-path="url(#pe77e4602da)" style="fill: #4caf50"/>
   </g>
   <g id="matplotlib.axis_7">
    <g id="xtick_10">
     <g id="line2d_25">
      <g>
       <use xlink:href="#m5d67e810e7" x="924.208792" y="334.856" style="stroke: #000000; stroke-width: 0.8"/>
      </g>
     </g>
     <g id="text_19">
      <!-- Low -->
      <g transform="translate(914.361917 349.454437) scale(0.1 -0.1)">
       <use xlink:href="#DejaVuSans-4c"/>
       <use xlink:href="#DejaVuSans-6f" transform="translate(53.962891 0)"/>
       <use xlink:href="#DejaVuSans-77" transform="translate(115.144531 0)"/>
      </g>
      <!-- (&lt;4 Mha) -->
      <g transform="translate(900.800198 360.65225) scale(0.1 -0.1)">
       <use xlink:href="#DejaVuSans-28"/>
       <use xlink:href="#DejaVuSans-3c" transform="translate(39.013672 0)"/>
       <use xlink:href="#DejaVuSans-34" transform="translate(122.802734 0)"/>
       <use xlink:href="#DejaVuSans-20" transform="translate(186.425781 0)"/>
       <use xlink:href="#DejaVuSans-4d" transform="translate(218.212891 0)"/>
       <use xlink:href="#DejaVuSans-68" transform="translate(304.492188 0)"/>
       <use xlink:href="#DejaVuSans-61" transform="translate(367.871094 0)"/>
       <use xlink:href="#DejaVuSans-29" transform="translate(429.150391 0)"/>
      </g>
     </g>
    </g>
    <g id="xtick_11">
     <g id="line2d_26">
      <g>
       <use xlink:href="#m5d67e810e7" x="1012.704125" y="334.856" style="stroke: #000000; stroke-width: 0.8"/>
      </g>
     </g>
     <g id="text_20">
      <!-- Medium -->
      <g transform="translate(992.711156 349.454437) scale(0.1 -0.1)">
       <use xlink:href="#DejaVuSans-4d"/>
       <use xlink:href="#DejaVuSans-65" transform="translate(86.279297 0)"/>
       <use xlink:href="#DejaVuSans-64" transform="translate(147.802734 0)"/>
       <use xlink:href="#DejaVuSans-69" transform="translate(211.279297 0)"/>
       <use xlink:href="#DejaVuSans-75" transform="translate(239.0625 0)"/>
       <use xlink:href="#DejaVuSans-6d" transform="translate(302.441406 0)"/>
      </g>
      <!-- (4-37 Mha) -->
      <g transform="translate(985.318969 360.65225) scale(0.1 -0.1)">
       <use xlink:href="#DejaVuSans-28"/>
       <use xlink:href="#DejaVuSans-34" transform="translate(39.013672 0)"/>
       <use xlink:href="#DejaVuSans-2d" transform="translate(102.636719 0)"/>
       <use xlink:href="#DejaVuSans-33" transform="translate(138.720703 0)"/>
       <use xlink:href="#DejaVuSans-37" transform="translate(202.34375 0)"/>
       <use xlink:href="#DejaVuSans-20" transform="translate(265.966797 0)"/>
       <use xlink:href="#DejaVuSans-4d" transform="translate(297.753906 0)"/>
       <use xlink:href="#DejaVuSans-68" transform="translate(384.033203 0)"/>
       <use xlink:href="#DejaVuSans-61" transform="translate(447.412109 0)"/>
       <use xlink:href="#DejaVuSans-29" transform="translate(508.691406 0)"/>
      </g>
     </g>
    </g>
    <g id="xtick_12">
     <g id="line2d_27">
      <g>
       <use xlink:href="#m5d67e810e7" x="1101.199458" y="334.856" style="stroke: #000000; stroke-width: 0.8"/>
      </g>
     </g>
     <g id="text_21">
      <!-- High -->
      <g transform="translate(1089.707271 349.454437) scale(0.1 -0.1)">
       <use xlink:href="#DejaVuSans-48"/>
       <use xlink:href="#DejaVuSans-69" transform="translate(75.195312 0)"/>
       <use xlink:href="#DejaVuSans-67" transform="translate(102.978516 0)"/>
       <use xlink:href="#DejaVuSans-68" transform="translate(166.455078 0)"/>
      </g>
      <!-- (&gt;37 Mha) -->
      <g transform="translate(1074.609615 360.65225) scale(0.1 -0.1)">
       <use xlink:href="#DejaVuSans-28"/>
       <use xlink:href="#DejaVuSans-3e" transform="translate(39.013672 0)"/>
       <use xlink:href="#DejaVuSans-33" transform="translate(122.802734 0)"/>
       <use xlink:href="#DejaVuSans-37" transform="translate(186.425781 0)"/>
       <use xlink:href="#DejaVuSans-20" transform="translate(250.048828 0)"/>
       <use xlink:href="#DejaVuSans-4d" transform="translate(281.835938 0)"/>
       <use xlink:href="#DejaVuSans-68" transform="translate(368.115234 0)"/>
       <use xlink:href="#DejaVuSans-61" transform="translate(431.494141 0)"/>
       <use xlink:href="#DejaVuSans-29" transform="translate(492.773438 0)"/>
      </g>
     </g>
    </g>
   </g>
   <g id="matplotlib.axis_8">
    <g id="ytick_16">
     <g id="line2d_28">
      <g>
       <use xlink:href="#md19666525b" x="879.961125" y="334.856" style="stroke: #000000; stroke-width: 0.8"/>
      </g>
     </g>
    </g>
    <g id="ytick_17">
     <g id="line2d_29">
      <g>
       <use xlink:href="#md19666525b" x="879.961125" y="276.454268" style="stroke: #000000; stroke-width: 0.8"/>
      </g>
     </g>
    </g>
    <g id="ytick_18">
     <g id="line2d_30">
      <g>
       <use xlink:href="#md19666525b" x="879.961125" y="218.052537" style="stroke: #000000; stroke-width: 0.8"/>
      </g>
     </g>
    </g>
    <g id="ytick_19">
     <g id="line2d_31">
      <g>
       <use xlink:href="#md19666525b" x="879.961125" y="159.650805" style="stroke: #000000; stroke-width: 0.8"/>
      </g>
     </g>
    </g>
    <g id="ytick_20">
     <g id="line2d_32">
      <g>
       <use xlink:href="#md19666525b" x="879.961125" y="101.249074" style="stroke: #000000; stroke-width: 0.8"/>
      </g>
     </g>
    </g>
   </g>
   <g id="patch_42">
    <path d="M 879.961125 334.856 
L 879.961125 65.04 
" style="fill: none; stroke: #000000; stroke-width: 0.8; stroke-linejoin: miter; stroke-linecap: square"/>
   </g>
   <g id="patch_43">
    <path d="M 1145.447125 334.856 
L 1145.447125 65.04 
" style="fill: none; stroke: #000000; stroke-width: 0.8; stroke-linejoin: miter; stroke-linecap: square"/>
   </g>
   <g id="patch_44">
    <path d="M 879.961125 334.856 
L 1145.447125 334.856 
" style="fill: none; stroke: #000000; stroke-width: 0.8; stroke-linejoin: miter; stroke-linecap: square"/>
   </g>
   <g id="patch_45">
    <path d="M 879.961125 65.04 
L 1145.447125 65.04 
" style="fill: none; stroke: #000000; stroke-width: 0.8; stroke-linejoin: miter; stroke-linecap: square"/>
   </g>
   <g id="text_22">
    <!-- Threshold 40% -->
    <g transform="translate(967.895375 59.04) scale(0.12 -0.12)">
     <use xlink:href="#DejaVuSans-54"/>
     <use xlink:href="#DejaVuSans-68" transform="translate(61.083984 0)"/>
     <use xlink:href="#DejaVuSans-72" transform="translate(124.462891 0)"/>
     <use xlink:href="#DejaVuSans-65" transform="translate(163.326172 0)"/>
     <use xlink:href="#DejaVuSans-73" transform="translate(224.849609 0)"/>
     <use xlink:href="#DejaVuSans-68" transform="translate(276.949219 0)"/>
     <use xlink:href="#DejaVuSans-6f" transform="translate(340.328125 0)"/>
     <use xlink:href="#DejaVuSans-6c" transform="translate(401.509766 0)"/>
     <use xlink:href="#DejaVuSans-64" transform="translate(429.292969 0)"/>
     <use xlink:href="#DejaVuSans-20" transform="translate(492.769531 0)"/>
     <use xlink:href="#DejaVuSans-34" transform="translate(524.556641 0)"/>
     <use xlink:href="#DejaVuSans-30" transform="translate(588.179688 0)"/>
     <use xlink:href="#DejaVuSans-25" transform="translate(651.802734 0)"/>
    </g>
   </g>
  </g>
  <g id="axes_5">
   <g id="patch_46">
    <path d="M 1159.747125 334.856 
L 1425.233125 334.856 
L 1425.233125 65.04 
L 1159.747125 65.04 
z
" style="fill: #ffffff"/>
   </g>
   <g id="patch_47">
    <path d="M 1181.870958 334.856 
L 1203.994792 334.856 
L 1203.994792 77.888381 
L 1181.870958 77.888381 
z
" clip-path="url(#pe544f79c28)" style="fill: #f4a83a"/>
   </g>
   <g id="patch_48">
    <path d="M 1270.366292 334.856 
L 1292.490125 334.856 
L 1292.490125 235.573056 
L 1270.366292 235.573056 
z
" clip-path="url(#pe544f79c28)" style="fill: #f4a83a"/>
   </g>
   <g id="patch_49">
    <path d="M 1358.861625 334.856 
L 1380.985458 334.856 
L 1380.985458 305.655134 
L 1358.861625 305.655134 
z
" clip-path="url(#pe544f79c28)" style="fill: #f4a83a"/>
   </g>
   <g id="patch_50">
    <path d="M 1203.994792 334.856 
L 1226.118625 334.856 
L 1226.118625 89.568727 
L 1203.994792 89.568727 
z
" clip-path="url(#pe544f79c28)" style="fill: #4caf50"/>
   </g>
   <g id="patch_51">
    <path d="M 1292.490125 334.856 
L 1314.613958 334.856 
L 1314.613958 188.851671 
L 1292.490125 188.851671 
z
" clip-path="url(#pe544f79c28)" style="fill: #4caf50"/>
   </g>
   <g id="patch_52">
    <path d="M 1380.985458 334.856 
L 1403.109292 334.856 
L 1403.109292 305.655134 
L 1380.985458 305.655134 
z
" clip-path="url(#pe544f79c28)" style="fill: #4caf50"/>
   </g>
   <g id="matplotlib.axis_9">
    <g id="xtick_13">
     <g id="line2d_33">
      <g>
       <use xlink:href="#m5d67e810e7" x="1203.994792" y="334.856" style="stroke: #000000; stroke-width: 0.8"/>
      </g>
     </g>
     <g id="text_23">
      <!-- Low -->
      <g transform="translate(1194.147917 349.454437) scale(0.1 -0.1)">
       <use xlink:href="#DejaVuSans-4c"/>
       <use xlink:href="#DejaVuSans-6f" transform="translate(53.962891 0)"/>
       <use xlink:href="#DejaVuSans-77" transform="translate(115.144531 0)"/>
      </g>
      <!-- (&lt;4 Mha) -->
      <g transform="translate(1180.586198 360.65225) scale(0.1 -0.1)">
       <use xlink:href="#DejaVuSans-28"/>
       <use xlink:href="#DejaVuSans-3c" transform="translate(39.013672 0)"/>
       <use xlink:href="#DejaVuSans-34" transform="translate(122.802734 0)"/>
       <use xlink:href="#DejaVuSans-20" transform="translate(186.425781 0)"/>
       <use xlink:href="#DejaVuSans-4d" transform="translate(218.212891 0)"/>
       <use xlink:href="#DejaVuSans-68" transform="translate(304.492188 0)"/>
       <use xlink:href="#DejaVuSans-61" transform="translate(367.871094 0)"/>
       <use xlink:href="#DejaVuSans-29" transform="translate(429.150391 0)"/>
      </g>
     </g>
    </g>
    <g id="xtick_14">
     <g id="line2d_34">
      <g>
       <use xlink:href="#m5d67e810e7" x="1292.490125" y="334.856" style="stroke: #000000; stroke-width: 0.8"/>
      </g>
     </g>
     <g id="text_24">
      <!-- Medium -->
      <g transform="translate(1272.497156 349.454437) scale(0.1 -0.1)">
       <use xlink:href="#DejaVuSans-4d"/>
       <use xlink:href="#DejaVuSans-65" transform="translate(86.279297 0)"/>
       <use xlink:href="#DejaVuSans-64" transform="translate(147.802734 0)"/>
       <use xlink:href="#DejaVuSans-69" transform="translate(211.279297 0)"/>
       <use xlink:href="#DejaVuSans-75" transform="translate(239.0625 0)"/>
       <use xlink:href="#DejaVuSans-6d" transform="translate(302.441406 0)"/>
      </g>
      <!-- (4-37 Mha) -->
      <g transform="translate(1265.104969 360.65225) scale(0.1 -0.1)">
       <use xlink:href="#DejaVuSans-28"/>
       <use xlink:href="#DejaVuSans-34" transform="translate(39.013672 0)"/>
       <use xlink:href="#DejaVuSans-2d" transform="translate(102.636719 0)"/>
       <use xlink:href="#DejaVuSans-33" transform="translate(138.720703 0)"/>
       <use xlink:href="#DejaVuSans-37" transform="translate(202.34375 0)"/>
       <use xlink:href="#DejaVuSans-20" transform="translate(265.966797 0)"/>
       <use xlink:href="#DejaVuSans-4d" transform="translate(297.753906 0)"/>
       <use xlink:href="#DejaVuSans-68" transform="translate(384.033203 0)"/>
       <use xlink:href="#DejaVuSans-61" transform="translate(447.412109 0)"/>
       <use xlink:href="#DejaVuSans-29" transform="translate(508.691406 0)"/>
      </g>
     </g>
    </g>
    <g id="xtick_15">
     <g id="line2d_35">
      <g>
       <use xlink:href="#m5d67e810e7" x="1380.985458" y="334.856" style="stroke: #000000; stroke-width: 0.8"/>
      </g>
     </g>
     <g id="text_25">
      <!-- High -->
      <g transform="translate(1369.493271 349.454437) scale(0.1 -0.1)">
       <use xlink:href="#DejaVuSans-48"/>
       <use xlink:href="#DejaVuSans-69" transform="translate(75.195312 0)"/>
       <use xlink:href="#DejaVuSans-67" transform="translate(102.978516 0)"/>
       <use xlink:href="#DejaVuSans-68" transform="translate(166.455078 0)"/>
      </g>
      <!-- (&gt;37 Mha) -->
      <g transform="translate(1354.395615 360.65225) scale(0.1 -0.1)">
       <use xlink:href="#DejaVuSans-28"/>
       <use xlink:href="#DejaVuSans-3e" transform="translate(39.013672 0)"/>
       <use xlink:href="#DejaVuSans-33" transform="translate(122.802734 0)"/>
       <use xlink:href="#DejaVuSans-37" transform="translate(186.425781 0)"/>
       <use xlink:href="#DejaVuSans-20" transform="translate(250.048828 0)"/>
       <use xlink:href="#DejaVuSans-4d" transform="translate(281.835938 0)"/>
       <use xlink:href="#DejaVuSans-68" transform="translate(368.115234 0)"/>
       <use xlink:href="#DejaVuSans-61" transform="translate(431.494141 0)"/>
       <use xlink:href="#DejaVuSans-29" transform="translate(492.773438 0)"/>
      </g>
     </g>
    </g>
   </g>
   <g id="matplotlib.axis_10">
    <g id="ytick_21">
     <g id="line2d_36">
      <g>
       <use xlink:href="#md19666525b" x="1159.747125" y="334.856" style="stroke: #000000; stroke-width: 0.8"/>
      </g>
     </g>
    </g>
    <g id="ytick_22">
     <g id="line2d_37">
      <g>
       <use xlink:href="#md19666525b" x="1159.747125" y="276.454268" style="stroke: #000000; stroke-width: 0.8"/>
      </g>
     </g>
    </g>
    <g id="ytick_23">
     <g id="line2d_38">
      <g>
       <use xlink:href="#md19666525b" x="1159.747125" y="218.052537" style="stroke: #000000; stroke-width: 0.8"/>
      </g>
     </g>
    </g>
    <g id="ytick_24">
     <g id="line2d_39">
      <g>
       <use xlink:href="#md19666525b" x="1159.747125" y="159.650805" style="stroke: #000000; stroke-width: 0.8"/>
      </g>
     </g>
    </g>
    <g id="ytick_25">
     <g id="line2d_40">
      <g>
       <use xlink:href="#md19666525b" x="1159.747125" y="101.249074" style="stroke: #000000; stroke-width: 0.8"/>
      </g>
     </g>
    </g>
   </g>
   <g id="patch_53">
    <path d="M 1159.747125 334.856 
L 1159.747125 65.04 
" style="fill: none; stroke: #000000; stroke-width: 0.8; stroke-linejoin: miter; stroke-linecap: square"/>
   </g>
   <g id="patch_54">
    <path d="M 1425.233125 334.856 
L 1425.233125 65.04 
" style="fill: none; stroke: #000000; stroke-width: 0.8; stroke-linejoin: miter; stroke-linecap: square"/>
   </g>
   <g id="patch_55">
    <path d="M 1159.747125 334.856 
L 1425.233125 334.856 
" style="fill: none; stroke: #000000; stroke-width: 0.8; stroke-linejoin: miter; stroke-linecap: square"/>
   </g>
   <g id="patch_56">
    <path d="M 1159.747125 65.04 
L 1425.233125 65.04 
" style="fill: none; stroke: #000000; stroke-width: 0.8; stroke-linejoin: miter; stroke-linecap: square"/>
   </g>
   <g id="text_26">
    <!-- Threshold 50% -->
    <g transform="translate(1247.681375 59.04) scale(0.12 -0.12)">
     <defs>
      <path id="DejaVuSans-35" d="M 691 4666 
L 3169 4666 
L 3169 4134 
L 1269 4134 
L 1269 2991 
Q 1406 3038 1543 3061 
Q 1681 3084 1819 3084 
Q 2600 3084 3056 2656 
Q 3513 2228 3513 1497 
Q 3513 744 3044 326 
Q 2575 -91 1722 -91 
Q 1428 -91 1123 -41 
Q 819 9 494 109 
L 494 744 
Q 775 591 1075 516 
Q 1375 441 1709 441 
Q 2250 441 2565 725 
Q 2881 1009 2881 1497 
Q 2881 1984 2565 2268 
Q 2250 2553 1709 2553 
Q 1456 2553 1204 2497 
Q 953 2441 691 2322 
L 691 4666 
z
" transform="scale(0.015625)"/>
     </defs>
     <use xlink:href="#DejaVuSans-54"/>
     <use xlink:href="#DejaVuSans-68" transform="translate(61.083984 0)"/>
     <use xlink:href="#DejaVuSans-72" transform="translate(124.462891 0)"/>
     <use xlink:href="#DejaVuSans-65" transform="translate(163.326172 0)"/>
     <use xlink:href="#DejaVuSans-73" transform="translate(224.849609 0)"/>
     <use xlink:href="#DejaVuSans-68" transform="translate(276.949219 0)"/>
     <use xlink:href="#DejaVuSans-6f" transform="translate(340.328125 0)"/>
     <use xlink:href="#DejaVuSans-6c" transform="translate(401.509766 0)"/>
     <use xlink:href="#DejaVuSans-64" transform="translate(429.292969 0)"/>
     <use xlink:href="#DejaVuSans-20" transform="translate(492.769531 0)"/>
     <use xlink:href="#DejaVuSans-35" transform="translate(524.556641 0)"/>
     <use xlink:href="#DejaVuSans-30" transform="translate(588.179688 0)"/>
     <use xlink:href="#DejaVuSans-25" transform="translate(651.802734 0)"/>
    </g>
   </g>
  </g>
  <g id="text_27">
   <!-- FAO Estimation Bias by Forest Area Group and Threshold -->
   <g transform="translate(545.9275 16.318125) scale(0.12 -0.12)">
    <defs>
     <path id="DejaVuSans-46" d="M 628 4666 
L 3309 4666 
L 3309 4134 
L 1259 4134 
L 1259 2759 
L 3109 2759 
L 3109 2228 
L 1259 2228 
L 1259 0 
L 628 0 
L 628 4666 
z
" transform="scale(0.015625)"/>
     <path id="DejaVuSans-41" d="M 2188 4044 
L 1331 1722 
L 3047 1722 
L 2188 4044 
z
M 1831 4666 
L 2547 4666 
L 4325 0 
L 3669 0 
L 3244 1197 
L 1141 1197 
L 716 0 
L 50 0 
L 1831 4666 
z
" transform="scale(0.015625)"/>
     <path id="DejaVuSans-4f" d="M 2522 4238 
Q 1834 4238 1429 3725 
Q 1025 3213 1025 2328 
Q 1025 1447 1429 934 
Q 1834 422 2522 422 
Q 3209 422 3611 934 
Q 4013 1447 4013 2328 
Q 4013 3213 3611 3725 
Q 3209 4238 2522 4238 
z
M 2522 4750 
Q 3503 4750 4090 4092 
Q 4678 3434 4678 2328 
Q 4678 1225 4090 567 
Q 3503 -91 2522 -91 
Q 1538 -91 948 565 
Q 359 1222 359 2328 
Q 359 3434 948 4092 
Q 1538 4750 2522 4750 
z
" transform="scale(0.015625)"/>
     <path id="DejaVuSans-45" d="M 628 4666 
L 3578 4666 
L 3578 4134 
L 1259 4134 
L 1259 2753 
L 3481 2753 
L 3481 2222 
L 1259 2222 
L 1259 531 
L 3634 531 
L 3634 0 
L 628 0 
L 628 4666 
z
" transform="scale(0.015625)"/>
     <path id="DejaVuSans-42" d="M 1259 2228 
L 1259 519 
L 2272 519 
Q 2781 519 3026 730 
Q 3272 941 3272 1375 
Q 3272 1813 3026 2020 
Q 2781 2228 2272 2228 
L 1259 2228 
z
M 1259 4147 
L 1259 2741 
L 2194 2741 
Q 2656 2741 2882 2914 
Q 3109 3088 3109 3444 
Q 3109 3797 2882 3972 
Q 2656 4147 2194 4147 
L 1259 4147 
z
M 628 4666 
L 2241 4666 
Q 2963 4666 3353 4366 
Q 3744 4066 3744 3513 
Q 3744 3084 3544 2831 
Q 3344 2578 2956 2516 
Q 3422 2416 3680 2098 
Q 3938 1781 3938 1306 
Q 3938 681 3513 340 
Q 3088 0 2303 0 
L 628 0 
L 628 4666 
z
" transform="scale(0.015625)"/>
     <path id="DejaVuSans-79" d="M 2059 -325 
Q 1816 -950 1584 -1140 
Q 1353 -1331 966 -1331 
L 506 -1331 
L 506 -850 
L 844 -850 
Q 1081 -850 1212 -737 
Q 1344 -625 1503 -206 
L 1606 56 
L 191 3500 
L 800 3500 
L 1894 763 
L 2988 3500 
L 3597 3500 
L 2059 -325 
z
" transform="scale(0.015625)"/>
     <path id="DejaVuSans-47" d="M 3809 666 
L 3809 1919 
L 2778 1919 
L 2778 2438 
L 4434 2438 
L 4434 434 
Q 4069 175 3628 42 
Q 3188 -91 2688 -91 
Q 1594 -91 976 548 
Q 359 1188 359 2328 
Q 359 3472 976 4111 
Q 1594 4750 2688 4750 
Q 3144 4750 3555 4637 
Q 3966 4525 4313 4306 
L 4313 3634 
Q 3963 3931 3569 4081 
Q 3175 4231 2741 4231 
Q 1884 4231 1454 3753 
Q 1025 3275 1025 2328 
Q 1025 1384 1454 906 
Q 1884 428 2741 428 
Q 3075 428 3337 486 
Q 3600 544 3809 666 
z
" transform="scale(0.015625)"/>
     <path id="DejaVuSans-70" d="M 1159 525 
L 1159 -1331 
L 581 -1331 
L 581 3500 
L 1159 3500 
L 1159 2969 
Q 1341 3281 1617 3432 
Q 1894 3584 2278 3584 
Q 2916 3584 3314 3078 
Q 3713 2572 3713 1747 
Q 3713 922 3314 415 
Q 2916 -91 2278 -91 
Q 1894 -91 1617 61 
Q 1341 213 1159 525 
z
M 3116 1747 
Q 3116 2381 2855 2742 
Q 2594 3103 2138 3103 
Q 1681 3103 1420 2742 
Q 1159 2381 1159 1747 
Q 1159 1113 1420 752 
Q 1681 391 2138 391 
Q 2594 391 2855 752 
Q 3116 1113 3116 1747 
z
" transform="scale(0.015625)"/>
    </defs>
    <use xlink:href="#DejaVuSans-46"/>
    <use xlink:href="#DejaVuSans-41" transform="translate(48.394531 0)"/>
    <use xlink:href="#DejaVuSans-4f" transform="translate(115.052734 0)"/>
    <use xlink:href="#DejaVuSans-20" transform="translate(193.763672 0)"/>
    <use xlink:href="#DejaVuSans-45" transform="translate(225.550781 0)"/>
    <use xlink:href="#DejaVuSans-73" transform="translate(288.734375 0)"/>
    <use xlink:href="#DejaVuSans-74" transform="translate(340.833984 0)"/>
    <use xlink:href="#DejaVuSans-69" transform="translate(380.042969 0)"/>
    <use xlink:href="#DejaVuSans-6d" transform="translate(407.826172 0)"/>
    <use xlink:href="#DejaVuSans-61" transform="translate(505.238281 0)"/>
    <use xlink:href="#DejaVuSans-74" transform="translate(566.517578 0)"/>
    <use xlink:href="#DejaVuSans-69" transform="translate(605.726562 0)"/>
    <use xlink:href="#DejaVuSans-6f" transform="translate(633.509766 0)"/>
    <use xlink:href="#DejaVuSans-6e" transform="translate(694.691406 0)"/>
    <use xlink:href="#DejaVuSans-20" transform="translate(758.070312 0)"/>
    <use xlink:href="#DejaVuSans-42" transform="translate(789.857422 0)"/>
    <use xlink:href="#DejaVuSans-69" transform="translate(858.460938 0)"/>
    <use xlink:href="#DejaVuSans-61" transform="translate(886.244141 0)"/>
    <use xlink:href="#DejaVuSans-73" transform="translate(947.523438 0)"/>
    <use xlink:href="#DejaVuSans-20" transform="translate(999.623047 0)"/>
    <use xlink:href="#DejaVuSans-62" transform="translate(1031.410156 0)"/>
    <use xlink:href="#DejaVuSans-79" transform="translate(1094.886719 0)"/>
    <use xlink:href="#DejaVuSans-20" transform="translate(1154.066406 0)"/>
    <use xlink:href="#DejaVuSans-46" transform="translate(1185.853516 0)"/>
    <use xlink:href="#DejaVuSans-6f" transform="translate(1239.748047 0)"/>
    <use xlink:href="#DejaVuSans-72" transform="translate(1300.929688 0)"/>
    <use xlink:href="#DejaVuSans-65" transform="translate(1339.792969 0)"/>
    <use xlink:href="#DejaVuSans-73" transform="translate(1401.316406 0)"/>
    <use xlink:href="#DejaVuSans-74" transform="translate(1453.416016 0)"/>
    <use xlink:href="#DejaVuSans-20" transform="translate(1492.625 0)"/>
    <use xlink:href="#DejaVuSans-41" transform="translate(1524.412109 0)"/>
    <use xlink:href="#DejaVuSans-72" transform="translate(1592.820312 0)"/>
    <use xlink:href="#DejaVuSans-65" transform="translate(1631.683594 0)"/>
    <use xlink:href="#DejaVuSans-61" transform="translate(1693.207031 0)"/>
    <use xlink:href="#DejaVuSans-20" transform="translate(1754.486328 0)"/>
    <use xlink:href="#DejaVuSans-47" transform="translate(1786.273438 0)"/>
    <use xlink:href="#DejaVuSans-72" transform="translate(1863.763672 0)"/>
    <use xlink:href="#DejaVuSans-6f" transform="translate(1902.626953 0)"/>
    <use xlink:href="#DejaVuSans-75" transform="translate(1963.808594 0)"/>
    <use xlink:href="#DejaVuSans-70" transform="translate(2027.1875 0)"/>
    <use xlink:href="#DejaVuSans-20" transform="translate(2090.664062 0)"/>
    <use xlink:href="#DejaVuSans-61" transform="translate(2122.451172 0)"/>
    <use xlink:href="#DejaVuSans-6e" transform="translate(2183.730469 0)"/>
    <use xlink:href="#DejaVuSans-64" transform="translate(2247.109375 0)"/>
    <use xlink:href="#DejaVuSans-20" transform="translate(2310.585938 0)"/>
    <use xlink:href="#DejaVuSans-54" transform="translate(2342.373047 0)"/>
    <use xlink:href="#DejaVuSans-68" transform="translate(2403.457031 0)"/>
    <use xlink:href="#DejaVuSans-72" transform="translate(2466.835938 0)"/>
    <use xlink:href="#DejaVuSans-65" transform="translate(2505.699219 0)"/>
    <use xlink:href="#DejaVuSans-73" transform="translate(2567.222656 0)"/>
    <use xlink:href="#DejaVuSans-68" transform="translate(2619.322266 0)"/>
    <use xlink:href="#DejaVuSans-6f" transform="translate(2682.701172 0)"/>
    <use xlink:href="#DejaVuSans-6c" transform="translate(2743.882812 0)"/>
    <use xlink:href="#DejaVuSans-64" transform="translate(2771.666016 0)"/>
   </g>
  </g>
  <g id="legend_1">
   <g id="patch_57">
    <path d="M 1346.419062 217.917188 
L 1457.833125 217.917188 
Q 1459.833125 217.917188 1459.833125 215.917188 
L 1459.833125 172.882812 
Q 1459.833125 170.882812 1457.833125 170.882812 
L 1346.419062 170.882812 
Q 1344.419062 170.882812 1344.419062 172.882812 
L 1344.419062 215.917188 
Q 1344.419062 217.917188 1346.419062 217.917188 
z
" style="fill: #ffffff; opacity: 0.8; stroke: #cccccc; stroke-linejoin: miter"/>
   </g>
   <g id="text_28">
    <!-- Estimation -->
    <g transform="translate(1375.501094 182.48125) scale(0.1 -0.1)">
     <use xlink:href="#DejaVuSans-45"/>
     <use xlink:href="#DejaVuSans-73" transform="translate(63.183594 0)"/>
     <use xlink:href="#DejaVuSans-74" transform="translate(115.283203 0)"/>
     <use xlink:href="#DejaVuSans-69" transform="translate(154.492188 0)"/>
     <use xlink:href="#DejaVuSans-6d" transform="translate(182.275391 0)"/>
     <use xlink:href="#DejaVuSans-61" transform="translate(279.6875 0)"/>
     <use xlink:href="#DejaVuSans-74" transform="translate(340.966797 0)"/>
     <use xlink:href="#DejaVuSans-69" transform="translate(380.175781 0)"/>
     <use xlink:href="#DejaVuSans-6f" transform="translate(407.958984 0)"/>
     <use xlink:href="#DejaVuSans-6e" transform="translate(469.140625 0)"/>
    </g>
   </g>
   <g id="patch_58">
    <path d="M 1348.419062 197.159375 
L 1368.419062 197.159375 
L 1368.419062 190.159375 
L 1348.419062 190.159375 
z
" style="fill: #f4a83a; stroke: #f4a83a; stroke-linejoin: miter"/>
   </g>
   <g id="text_29">
    <!-- overestimated -->
    <g transform="translate(1376.419062 197.159375) scale(0.1 -0.1)">
     <defs>
      <path id="DejaVuSans-76" d="M 191 3500 
L 800 3500 
L 1894 563 
L 2988 3500 
L 3597 3500 
L 2284 0 
L 1503 0 
L 191 3500 
z
" transform="scale(0.015625)"/>
     </defs>
     <use xlink:href="#DejaVuSans-6f"/>
     <use xlink:href="#DejaVuSans-76" transform="translate(61.181641 0)"/>
     <use xlink:href="#DejaVuSans-65" transform="translate(120.361328 0)"/>
     <use xlink:href="#DejaVuSans-72" transform="translate(181.884766 0)"/>
     <use xlink:href="#DejaVuSans-65" transform="translate(220.748047 0)"/>
     <use xlink:href="#DejaVuSans-73" transform="translate(282.271484 0)"/>
     <use xlink:href="#DejaVuSans-74" transform="translate(334.371094 0)"/>
     <use xlink:href="#DejaVuSans-69" transform="translate(373.580078 0)"/>
     <use xlink:href="#DejaVuSans-6d" transform="translate(401.363281 0)"/>
     <use xlink:href="#DejaVuSans-61" transform="translate(498.775391 0)"/>
     <use xlink:href="#DejaVuSans-74" transform="translate(560.054688 0)"/>
     <use xlink:href="#DejaVuSans-65" transform="translate(599.263672 0)"/>
     <use xlink:href="#DejaVuSans-64" transform="translate(660.787109 0)"/>
    </g>
   </g>
   <g id="patch_59">
    <path d="M 1348.419062 211.8375 
L 1368.419062 211.8375 
L 1368.419062 204.8375 
L 1348.419062 204.8375 
z
" style="fill: #4caf50; stroke: #4caf50; stroke-linejoin: miter"/>
   </g>
   <g id="text_30">
    <!-- underestimated -->
    <g transform="translate(1376.419062 211.8375) scale(0.1 -0.1)">
     <use xlink:href="#DejaVuSans-75"/>
     <use xlink:href="#DejaVuSans-6e" transform="translate(63.378906 0)"/>
     <use xlink:href="#DejaVuSans-64" transform="translate(126.757812 0)"/>
     <use xlink:href="#DejaVuSans-65" transform="translate(190.234375 0)"/>
     <use xlink:href="#DejaVuSans-72" transform="translate(251.757812 0)"/>
     <use xlink:href="#DejaVuSans-65" transform="translate(290.621094 0)"/>
     <use xlink:href="#DejaVuSans-73" transform="translate(352.144531 0)"/>
     <use xlink:href="#DejaVuSans-74" transform="translate(404.244141 0)"/>
     <use xlink:href="#DejaVuSans-69" transform="translate(443.453125 0)"/>
     <use xlink:href="#DejaVuSans-6d" transform="translate(471.236328 0)"/>
     <use xlink:href="#DejaVuSans-61" transform="translate(568.648438 0)"/>
     <use xlink:href="#DejaVuSans-74" transform="translate(629.927734 0)"/>
     <use xlink:href="#DejaVuSans-65" transform="translate(669.136719 0)"/>
     <use xlink:href="#DejaVuSans-64" transform="translate(730.660156 0)"/>
    </g>
   </g>
  </g>
 </g>
 <defs>
  <clipPath id="p499cb677d8">
   <rect x="40.603125" y="65.04" width="265.486" height="269.816"/>
  </clipPath>
  <clipPath id="p30bfabc5a7">
   <rect x="320.389125" y="65.04" width="265.486" height="269.816"/>
  </clipPath>
  <clipPath id="pb9eabc1eda">
   <rect x="600.175125" y="65.04" width="265.486" height="269.816"/>
  </clipPath>
  <clipPath id="pe77e4602da">
   <rect x="879.961125" y="65.04" width="265.486" height="269.816"/>
  </clipPath>
  <clipPath id="pe544f79c28">
   <rect x="1159.747125" y="65.04" width="265.486" height="269.816"/>
  </clipPath>
 </defs>
</svg>
